<svg width="36" height="49" viewBox="0 0 36 49" fill="none" xmlns="http://www.w3.org/2000/svg">
<g clip-path="url(#clip0_223_6640)">
<g style="mix-blend-mode:multiply">
<path d="M15.666 26.9578C16.6602 26.9889 17.6641 25.5196 18.6211 23.1686C17.9883 24.1475 17.248 24.8267 16.3984 24.8949C13.0059 25.1673 12.6094 6.40845 12.6094 6.40845H12.3281C12.3418 8.73214 12.541 26.8566 15.666 26.9578Z" fill="url(#paint0_linear_223_6640)"/>
</g>
<path d="M12.0801 6.47676L12.3242 6.41448C12.3242 6.41448 12.3242 26.849 15.6641 26.956C19.002 27.065 22.4766 10.2075 23.7539 -0.00195312H23.916V48.998H12.0801V6.47676Z" fill="url(#paint1_linear_223_6640)"/>
<path d="M4.30469 36.2682L4.07617 36.313C3.82617 36.1203 3.46094 35.7856 2.98242 35.3088C2.50195 34.83 2.02734 34.3299 1.55273 33.8083C1.38867 33.9154 1.22266 34.0438 1.05273 34.1995C1.05273 34.5284 1.05273 34.8262 1.05859 35.0928C1.0625 35.3575 1.06836 35.6241 1.07422 35.8926C1.11133 35.9004 1.24609 35.9141 1.47461 35.9316C1.54883 35.9394 1.62891 35.951 1.7207 35.9666L1.73242 36.0561C1.73242 36.0561 1.63086 36.0522 1.45117 36.0444C1.27148 36.0367 1.13086 36.0328 1.02734 36.0328C0.814453 36.0328 0.630859 36.0347 0.472656 36.0386C0.3125 36.0425 0.15625 36.0483 0.00195312 36.0542L0.0234375 35.9647C0.369141 35.9238 0.5625 35.8946 0.599609 35.879C0.599609 35.5968 0.605469 35.231 0.617188 34.7814C0.626953 34.3318 0.632812 34.001 0.632812 33.785C0.632812 33.4308 0.628906 33.1505 0.621094 32.9423C0.613281 32.7341 0.605469 32.4947 0.599609 32.2222L0.0117187 32.1307L0.00195312 32.0315C0.09375 32.0315 0.177734 32.0315 0.25 32.0373C0.59375 32.0548 0.775391 32.0646 0.794922 32.0646L1.67578 32.0315L1.65234 32.1307C1.58008 32.1307 1.38867 32.1541 1.07422 32.1989C1.07031 32.3876 1.06641 32.6309 1.06055 32.9267C1.05469 33.2225 1.05273 33.5689 1.05273 33.9699C1.51758 33.5845 1.85547 33.3043 2.05859 33.1311C2.52148 32.7302 2.83984 32.4227 3.01367 32.2105C2.89258 32.1775 2.74023 32.1502 2.55859 32.1307L2.53516 32.0315C2.64844 32.0315 2.75781 32.0354 2.86523 32.0432C2.97266 32.051 3.09961 32.0587 3.25 32.0646C3.33594 32.0646 3.45117 32.0587 3.58789 32.0471C3.72461 32.0373 3.83008 32.0315 3.9043 32.0315L3.86914 32.1307C3.74805 32.1541 3.625 32.1755 3.5 32.1989C3.35938 32.2845 3.12891 32.4616 2.80664 32.7302C2.50781 32.9851 2.20898 33.2401 1.9082 33.493C3.05859 34.9371 3.85547 35.8615 4.29883 36.2644L4.30469 36.2682Z" fill="white"/>
<path d="M6.58594 36.0346C6.52344 36.0346 6.40234 36.0307 6.2207 36.0249C6.04102 36.0171 5.92969 36.0132 5.88867 36.0132C5.29883 36.0288 4.9707 36.0346 4.90234 36.0346L4.92578 35.9451L5.50195 35.8712C5.50195 35.7797 5.50586 35.5247 5.51172 35.1024C5.51953 34.6801 5.52344 34.3026 5.52344 33.9678C5.52344 33.7324 5.51953 33.4657 5.51367 33.166C5.50781 32.8644 5.50391 32.5374 5.5 32.1813L4.91992 32.1015L4.89648 32.012C4.96875 32.012 5.10547 32.0197 5.30469 32.0295C5.50391 32.0412 5.62891 32.047 5.67969 32.047C5.79492 32.047 5.95508 32.0412 6.1543 32.0295C6.35352 32.0178 6.5 32.012 6.5918 32.012L6.55859 32.1015C6.47656 32.1015 6.375 32.1132 6.25391 32.1326C6.13477 32.154 6.04102 32.1677 5.97852 32.1813C5.96875 32.4051 5.96094 32.7242 5.95508 33.1407C5.94922 33.5572 5.94336 33.8297 5.94336 33.9581C5.9668 35.12 5.97656 35.7583 5.97656 35.8712C6.14063 35.9023 6.25391 35.9237 6.31641 35.9315C6.38086 35.9412 6.45703 35.9451 6.55078 35.9451L6.58398 36.0346H6.58594Z" fill="white"/>
<path d="M12.3809 32.0159L12.3574 32.1054C12.2441 32.1209 12.1504 32.1346 12.0742 32.1482C11.998 32.1618 11.9434 32.1735 11.9043 32.1852C11.8594 32.4479 11.8242 32.9091 11.8027 33.5708C11.7793 34.2325 11.7695 35.1764 11.7695 36.4005C11.5605 36.1105 11.2812 35.7466 10.9336 35.3068C10.6348 34.9214 10.2578 34.4485 9.80273 33.8842C9.33203 33.3023 8.92969 32.8118 8.59766 32.4109C8.59766 32.8001 8.60352 33.2011 8.61328 33.6195C8.625 34.036 8.63867 34.4758 8.6543 34.939C8.66992 35.4021 8.67773 35.7116 8.67773 35.8712C8.72656 35.8867 8.94531 35.9101 9.33594 35.9451L9.34766 36.0366L8.5625 36.0132C8.48047 36.0132 8.34375 36.0171 8.1543 36.0249C7.96484 36.0327 7.84766 36.0366 7.80273 36.0366L7.8125 35.9451C7.88086 35.9373 7.94336 35.9315 7.99805 35.9257C8.05664 35.9198 8.1543 35.9023 8.29297 35.8712C8.30859 35.8031 8.32617 35.6045 8.35156 35.2718C8.37305 34.939 8.39062 34.4991 8.4082 33.9523C8.42383 33.4054 8.43164 32.8235 8.43164 32.2124L7.8125 32.1404L7.80273 32.0509C8.11328 32.0509 8.34961 32.047 8.51172 32.0412C8.67383 32.0353 8.80859 32.0256 8.91602 32.012C9.18164 32.3798 9.52734 32.8391 9.95508 33.3898C9.95898 33.3937 10.3184 33.8491 11.0293 34.756C11.377 35.1939 11.5664 35.4352 11.5918 35.48C11.5879 35.3301 11.584 35.1783 11.584 35.0285C11.584 34.8786 11.5879 34.7327 11.5918 34.5867C11.5918 33.9075 11.5879 33.3801 11.5781 33.0064C11.5684 32.6328 11.5527 32.3584 11.5293 32.1832C11.3789 32.154 11.2637 32.1326 11.1875 32.1209C11.1094 32.1093 11.0156 32.1034 10.9062 32.1034L10.8828 32.0139C10.9727 32.0139 11.1191 32.0197 11.3223 32.0314C11.5234 32.0431 11.6465 32.0489 11.6895 32.0489H12.2129C12.293 32.0314 12.3477 32.0197 12.3828 32.0139L12.3809 32.0159Z" fill="white"/>
<path d="M18.0957 34.2579L18.0605 34.3591L17.5703 34.4272V35.9315C17.041 36.0522 16.5547 36.1125 16.1113 36.1125C15.332 36.1125 14.7168 35.9296 14.2676 35.5618C13.8398 35.2154 13.6269 34.7658 13.6269 34.217C13.6269 33.4541 13.875 32.8741 14.3769 32.481C14.8086 32.1404 15.3691 31.9692 16.0566 31.9692C16.2793 31.9692 16.4922 31.9809 16.6953 32.0042C16.8965 32.0256 17.1074 32.0607 17.3242 32.1054C17.332 32.0782 17.3457 31.9925 17.3691 31.8485C17.3769 31.7843 17.3926 31.6909 17.4141 31.5702L17.5156 31.5469C17.4883 31.8388 17.4687 32.0821 17.457 32.2747C17.4434 32.4674 17.4355 32.7613 17.4355 33.1563L17.3476 33.1213C17.3476 32.9773 17.3262 32.7944 17.2793 32.5725C17.1309 32.4557 16.918 32.3526 16.6406 32.265C16.3613 32.1794 16.082 32.1346 15.7969 32.1346C15.3301 32.1346 14.9297 32.2864 14.5918 32.59C14.2285 32.9111 14.0469 33.314 14.0469 33.7927C14.0469 34.396 14.2598 34.9059 14.6836 35.3263C15.1094 35.7486 15.6309 35.9568 16.25 35.9568C16.4277 35.9568 16.5859 35.9432 16.7226 35.9179C16.8594 35.8926 16.9941 35.8498 17.1269 35.7914V34.8261C17.1269 34.7969 17.1269 34.7716 17.1269 34.758V34.4291L16.5566 34.361L16.5234 34.2579C16.5762 34.2579 16.6777 34.2598 16.8281 34.2695C16.9805 34.2773 17.125 34.2812 17.2656 34.2812H17.6797C17.8242 34.2812 17.9609 34.2734 18.0957 34.2579Z" fill="white"/>
<path d="M22.4355 35.4313C22.0098 35.7077 21.5273 35.8459 20.9824 35.8459C20.8457 35.8459 20.7168 35.8361 20.5977 35.8147C20.4785 35.7933 20.3555 35.77 20.2305 35.7427C20.2168 35.4313 20.207 35.1394 20.1992 34.867C20.1914 34.5926 20.1855 34.3026 20.1855 33.9951L20.2305 32.2124C20.4121 32.1891 20.6035 32.1774 20.8047 32.1774C21.6133 32.1774 22.2285 32.3331 22.6504 32.6445C23.0527 32.9403 23.2559 33.3645 23.2559 33.9153C23.2559 34.5673 22.9805 35.0733 22.4355 35.4294V35.4313ZM23.1992 32.5549C22.7812 32.1949 22.1738 32.0139 21.375 32.0139C21.1055 32.0275 20.8477 32.0353 20.5977 32.0412C20.3457 32.047 20.1289 32.0489 19.9395 32.0489C19.8887 32.0489 19.7637 32.0431 19.5605 32.0314C19.3594 32.0198 19.2207 32.0139 19.1445 32.0139L19.1543 32.0995C19.2227 32.1073 19.3223 32.119 19.4531 32.1365C19.584 32.1521 19.6758 32.1677 19.7285 32.1774C19.752 32.3253 19.7637 32.6717 19.7637 33.2147V33.8316C19.7637 35.0557 19.752 35.7349 19.7285 35.8712C19.6543 35.8945 19.5684 35.912 19.4727 35.9257C19.375 35.9393 19.2754 35.9451 19.1641 35.9451L19.1426 36.0346L20.6523 36.0132C21.5117 36.0132 22.2051 35.8361 22.7344 35.4819C23.3672 35.0616 23.6816 34.4193 23.6816 33.5572C23.6816 33.1738 23.5195 32.8391 23.1953 32.5549H23.1992Z" fill="white"/>
<path d="M28.3809 35.5112C28.0859 35.772 27.7031 35.9024 27.2383 35.9024C26.6895 35.9024 26.2188 35.6922 25.8223 35.2718C25.4297 34.8514 25.2324 34.3746 25.2324 33.8394C25.2324 33.3704 25.3828 32.9792 25.6855 32.664C26.0117 32.3273 26.4434 32.158 26.9824 32.158C27.5215 32.158 28.0039 32.3565 28.3906 32.7554C28.7578 33.1291 28.9414 33.5592 28.9414 34.0438C28.9414 34.6957 28.7539 35.1842 28.3789 35.5112H28.3809ZM28.7109 32.4402C28.2988 32.119 27.7344 31.9575 27.0176 31.9575C26.3965 31.9575 25.875 32.1891 25.4551 32.6562C25.0605 33.0902 24.8652 33.5923 24.8652 34.1606C24.8652 34.7288 25.0703 35.2154 25.4805 35.5715C25.8926 35.9257 26.4336 36.1009 27.1074 36.1009C27.8516 36.1009 28.4355 35.8342 28.8574 35.301C29.1953 34.8728 29.3613 34.398 29.3613 33.8686C29.3613 33.2556 29.1445 32.7807 28.709 32.4382L28.7109 32.4402Z" fill="white"/>
<path d="M36 36.0346C35.9238 36.0346 35.8496 36.0346 35.7715 36.0307C35.4102 36.0191 35.2227 36.0113 35.2109 36.0113C35.1152 36.0113 34.9707 36.0152 34.7793 36.023C34.5859 36.0307 34.4687 36.0327 34.4258 36.0327L34.4375 35.9334C34.6016 35.9198 34.7344 35.9081 34.8398 35.8984C34.9473 35.8867 35.0137 35.877 35.043 35.8673C35.002 35.5267 34.9141 34.9954 34.7832 34.2734C34.6484 33.5533 34.5273 32.9617 34.4141 32.4985L32.9941 35.9879L31.7246 32.4304C31.6699 32.5705 31.5977 32.9033 31.502 33.4268C31.4082 33.9523 31.3262 34.4641 31.2598 34.9662C31.1934 35.4664 31.166 35.7661 31.1777 35.8653C31.2383 35.8653 31.3398 35.8751 31.4824 35.8926C31.625 35.912 31.7227 35.9237 31.7754 35.9315L31.7988 36.0307C31.7852 36.0307 31.6777 36.0269 31.4727 36.021C31.2695 36.0132 31.0938 36.0093 30.9492 36.0093C30.8574 36.0093 30.7695 36.0093 30.6836 36.0113C30.5996 36.0132 30.4883 36.021 30.3516 36.0307L30.3633 35.9315C30.3789 35.9276 30.4258 35.9198 30.5039 35.9081C30.582 35.8965 30.6816 35.8789 30.8027 35.8575C30.8203 35.7972 30.8828 35.517 30.9844 35.0187C31.0566 34.6743 31.1582 34.1839 31.2852 33.5455C31.334 33.2925 31.4258 32.8391 31.5586 32.1852C31.4551 32.156 31.2871 32.1307 31.0566 32.1093L31.0332 32.01C31.1016 32.01 31.2227 32.0159 31.3984 32.0275C31.5723 32.0392 31.6797 32.0431 31.7207 32.0431H32.0625C32.1133 32.0431 32.1719 32.0431 32.2363 32.0392C32.2988 32.0373 32.377 32.0275 32.4766 32.01L32.4648 32.1093C32.4121 32.1093 32.2832 32.1365 32.0801 32.1891C32.1563 32.4304 32.2715 32.7768 32.4297 33.2225C32.5625 33.5981 32.6953 33.9639 32.8281 34.324C32.9414 34.6276 33.0508 34.9117 33.1543 35.1822L34.3242 32.1852L33.9121 32.1093L33.8887 32.01C33.959 32.01 34.0625 32.0159 34.2012 32.0275C34.3418 32.0392 34.4434 32.0431 34.502 32.0431L35.2305 32.01L35.2188 32.1093C35.1543 32.1093 35.082 32.1151 35.002 32.1248C34.9219 32.1346 34.8437 32.156 34.7734 32.1891C34.8457 32.5666 34.8984 32.8469 34.9375 33.0317C35.0039 33.3723 35.0879 33.7771 35.1855 34.25C35.3027 34.7852 35.418 35.3223 35.5312 35.8575C35.5996 35.877 35.6738 35.8926 35.7578 35.9081C35.8418 35.9237 35.9082 35.9315 35.9609 35.9315L35.9961 36.0307L36 36.0346Z" fill="white"/>
<path d="M11.4004 39.9698L11.3867 40.0807C11.2754 40.143 11.1426 40.1936 10.9863 40.2306C10.8301 40.2676 10.6621 40.2851 10.4766 40.2851C10.0723 40.2851 9.74023 40.1819 9.48828 39.9776C9.22266 39.7635 9.0918 39.4755 9.0918 39.1135C9.0918 38.7515 9.21094 38.4538 9.45117 38.2144C9.7207 37.9458 10.0898 37.8115 10.5625 37.8115C10.7891 37.8115 11.002 37.833 11.1973 37.8777L11.2617 37.5663L11.3301 37.5449C11.3047 37.6928 11.2852 37.8544 11.2695 38.0334C11.2539 38.2105 11.2461 38.3915 11.2461 38.5744L11.1914 38.555C11.1914 38.3876 11.1836 38.2611 11.1699 38.1716C11.1152 38.0957 11.0195 38.0373 10.8828 37.9886C10.7461 37.9419 10.5879 37.9186 10.4082 37.9186C10.0996 37.9186 9.8457 38.0139 9.64258 38.2047C9.43945 38.3954 9.33789 38.6328 9.33789 38.917C9.33789 39.2926 9.47266 39.5962 9.74219 39.8277C9.99023 40.0438 10.293 40.1508 10.6484 40.1508C10.9434 40.1508 11.1934 40.0905 11.3984 39.9737L11.4004 39.9698Z" fill="white"/>
<path d="M14.0312 39.6817C14.0117 39.7517 13.9902 39.8841 13.9629 40.0787C13.9355 40.2733 13.918 40.4056 13.9141 40.4718L13.8574 40.4582L13.8516 40.2655C13.8379 40.2577 13.7305 40.246 13.5332 40.2363C13.3359 40.2227 13.166 40.2169 13.0254 40.2169C12.9004 40.2169 12.7715 40.2207 12.6367 40.2246C12.502 40.2285 12.4121 40.2363 12.3672 40.2402L12.3809 40.1818C12.5449 40.1682 12.6621 40.1546 12.7324 40.141L12.75 38.9596C12.75 38.7728 12.7461 38.6054 12.7441 38.4575C12.7402 38.3116 12.7363 38.1364 12.7324 37.9301C12.6953 37.9223 12.6445 37.9126 12.5781 37.9048C12.5117 37.897 12.4473 37.8912 12.3809 37.8834L12.3594 37.8328C12.4297 37.8328 12.4941 37.8328 12.5527 37.8348C12.8418 37.8464 13.0137 37.8503 13.0664 37.8503C13.2051 37.8503 13.3516 37.8464 13.5078 37.8406C13.6641 37.8328 13.7891 37.827 13.8789 37.8173L13.9062 37.6596L13.957 37.646C13.9453 37.7491 13.9355 37.8679 13.9238 38.006C13.9063 38.2162 13.8965 38.331 13.8945 38.3486L13.8398 38.3213V38.0761C13.8398 38.0352 13.7422 37.9963 13.5469 37.9632C13.3516 37.9321 13.1777 37.9165 13.0273 37.9165C13.0273 38.008 13.0234 38.1656 13.0176 38.3875C13.0117 38.6113 13.0098 38.7884 13.0098 38.9188C13.3555 38.9188 13.6035 38.8993 13.7539 38.8604L13.7871 38.7203L13.8379 38.7125L13.752 39.3314L13.7051 39.3041L13.7129 39.0764C13.6699 39.0511 13.582 39.0317 13.4512 39.0141C13.3203 38.9986 13.1719 38.9888 13.0078 38.9888C13.0078 39.0784 13.0098 39.2613 13.0156 39.5376C13.0215 39.8159 13.0254 40.0145 13.0254 40.1351C13.5156 40.1351 13.8086 40.0884 13.9004 39.9989L13.957 39.7031L14.0332 39.6758L14.0312 39.6817Z" fill="white"/>
<path d="M17.9863 37.833L17.9726 37.8894C17.9023 37.8992 17.8437 37.907 17.7988 37.9147C17.7539 37.9225 17.7187 37.9303 17.6914 37.9361C17.6641 38.0938 17.6445 38.3682 17.6309 38.7633C17.6172 39.1564 17.6094 39.7208 17.6094 40.4525C17.4824 40.2793 17.3144 40.0613 17.1035 39.7986C16.9219 39.569 16.6914 39.2848 16.4141 38.9481C16.1289 38.5998 15.8867 38.3059 15.6836 38.0646C15.6836 38.2981 15.6875 38.5395 15.6953 38.7905C15.7031 39.0396 15.7109 39.3043 15.7187 39.5806C15.7266 39.8589 15.7324 40.0438 15.7324 40.1392C15.7617 40.1489 15.8965 40.1625 16.1328 40.182L16.1387 40.2365L15.6641 40.2229C15.6113 40.2229 15.5293 40.2248 15.4141 40.2307C15.3008 40.2345 15.2285 40.2384 15.1992 40.2384L15.2109 40.1839C15.2519 40.1781 15.2891 40.1742 15.3242 40.1723C15.3574 40.1684 15.418 40.1586 15.5039 40.1411C15.5137 40.1003 15.5234 39.9815 15.5371 39.7811C15.5508 39.5826 15.5625 39.3179 15.5703 38.991C15.5801 38.664 15.584 38.3156 15.584 37.9498L15.209 37.907L15.1973 37.8544C15.3867 37.8544 15.5332 37.8544 15.6309 37.8486C15.7285 37.8447 15.8125 37.8388 15.8769 37.8311C16.0371 38.051 16.248 38.3254 16.5078 38.6562C16.5117 38.6601 16.7285 38.9306 17.1601 39.4736C17.3711 39.7383 17.4844 39.8803 17.5 39.9076V39.3743C17.5 38.9676 17.4961 38.6543 17.4902 38.4324C17.4824 38.2086 17.4726 38.0451 17.459 37.94C17.3691 37.9225 17.3008 37.9089 17.2539 37.9031C17.207 37.8953 17.1484 37.8914 17.0801 37.8914L17.0664 37.8349C17.125 37.8349 17.2129 37.8388 17.3379 37.8447C17.4609 37.8505 17.5352 37.8525 17.5605 37.8525H17.8769C17.9277 37.8447 17.9609 37.8388 17.9824 37.8349L17.9863 37.833Z" fill="white"/>
<path d="M21.3848 37.6033C21.3711 37.6675 21.3516 37.8154 21.3242 38.0509C21.2969 38.2864 21.2793 38.4206 21.2734 38.4518C21.2539 38.4518 21.2344 38.4459 21.2109 38.4343L21.2187 38.0606C21.1523 38.0275 21.0176 38.0003 20.8105 37.9789C20.6035 37.9575 20.418 37.9458 20.2578 37.9458C20.2578 37.9575 20.2539 38.0762 20.2461 38.3039C20.2383 38.5316 20.2344 38.7515 20.2344 38.9675C20.2344 39.2536 20.2344 39.4696 20.2402 39.6234C20.2441 39.7752 20.25 39.9464 20.2578 40.1371L20.6934 40.18L20.707 40.2306L20.1094 40.2189H19.8711C19.7988 40.2189 19.7266 40.2208 19.6582 40.2208C19.5879 40.2208 19.541 40.2267 19.5137 40.2344L19.5332 40.18C19.6465 40.18 19.7363 40.1761 19.8008 40.1663C19.8672 40.1566 19.9199 40.1469 19.9629 40.1352C19.9629 39.888 19.9629 39.6681 19.9668 39.4774C19.9688 39.2847 19.9707 39.1018 19.9746 38.9266C19.9746 38.7203 19.9746 38.5413 19.9707 38.3895C19.9687 38.2377 19.9648 38.0898 19.9629 37.9477C19.707 37.9477 19.498 37.9594 19.3418 37.9789C19.1855 38.0003 19.0742 38.0295 19.0098 38.0664C19.002 38.082 18.9785 38.1988 18.9414 38.4148C18.9102 38.4226 18.8906 38.4284 18.8828 38.4362C18.8828 38.2902 18.8906 38.1073 18.9043 37.8952C18.9082 37.8212 18.916 37.722 18.9277 37.5994L18.9961 37.6091C18.9961 37.6986 19.0039 37.7745 19.0176 37.831C19.0781 37.831 19.1777 37.8368 19.3164 37.8426C19.6387 37.8601 19.8945 37.8699 20.084 37.8699C20.2109 37.8699 20.3594 37.866 20.5234 37.8582C20.9141 37.8407 21.1621 37.831 21.2695 37.831C21.2715 37.8271 21.2793 37.794 21.293 37.7356C21.3066 37.6753 21.3164 37.6344 21.3242 37.6188L21.3887 37.6052L21.3848 37.6033Z" fill="white"/>
<path d="M23.6074 38.8508C23.459 38.9754 23.2129 39.0377 22.8652 39.0377L22.8809 37.905C23.1348 37.905 23.3398 37.9381 23.4961 38.0082C23.6894 38.0918 23.7851 38.2261 23.7851 38.4091C23.7851 38.6056 23.7246 38.7516 23.6074 38.8508ZM24.0644 39.7071C23.8652 39.4152 23.7109 39.17 23.6016 38.9715C23.7402 38.88 23.8496 38.7749 23.9355 38.6582C24.0195 38.5414 24.0625 38.4266 24.0625 38.3157C24.0625 38.1152 23.957 37.979 23.7461 37.9109C23.582 37.8583 23.2812 37.833 22.8398 37.833H22.2226L22.2305 37.8836L22.5957 37.9245C22.5957 38.1463 22.5996 38.3643 22.6035 38.5784C22.6074 38.7944 22.6094 39.0338 22.6094 39.3004C22.6094 39.4931 22.6094 39.6604 22.6035 39.7986C22.6016 39.9387 22.5976 40.0516 22.5957 40.1372C22.5762 40.147 22.5351 40.1567 22.4726 40.1664C22.4082 40.1762 22.3301 40.182 22.2383 40.182L22.2246 40.2365C22.2383 40.2307 22.2832 40.2268 22.3613 40.2248C22.4375 40.2229 22.5723 40.2209 22.7656 40.2209C22.7695 40.2209 22.8359 40.2248 22.9668 40.2287C23.0976 40.2326 23.1894 40.2365 23.2441 40.2365L23.2305 40.182C23.2187 40.1781 23.1816 40.1723 23.1172 40.1664C23.0527 40.1586 22.9726 40.1489 22.8789 40.1392C22.8789 40.1081 22.8789 39.9699 22.875 39.7247C22.8691 39.4814 22.8672 39.2829 22.8672 39.1311L23.3144 39.1077C23.5 39.3354 23.7129 39.5806 23.9492 39.8492C24.1836 40.1158 24.3262 40.2715 24.375 40.3163L24.5195 40.3027C24.4355 40.2248 24.2832 40.0283 24.0644 39.711V39.7071Z" fill="white"/>
<path d="M27.0176 39.6817C27 39.7517 26.9766 39.8841 26.9492 40.0787C26.9238 40.2733 26.9043 40.4056 26.8984 40.4718L26.8437 40.4582L26.8359 40.2655C26.8242 40.2577 26.7168 40.246 26.5195 40.2363C26.3223 40.2227 26.1523 40.2169 26.0117 40.2169C25.8867 40.2169 25.7578 40.2207 25.623 40.2246C25.4883 40.2285 25.3965 40.2363 25.3516 40.2402L25.3652 40.1818C25.5293 40.1682 25.6465 40.1546 25.7168 40.141L25.7344 38.9596C25.7344 38.7728 25.7305 38.6054 25.7266 38.4575C25.7227 38.3116 25.7207 38.1364 25.7168 37.9301C25.6797 37.9223 25.6289 37.9126 25.5625 37.9048C25.498 37.897 25.4316 37.8912 25.3652 37.8834L25.3457 37.8328C25.416 37.8328 25.4805 37.8328 25.5391 37.8348C25.8281 37.8464 26 37.8503 26.0527 37.8503C26.1894 37.8503 26.3379 37.8464 26.4941 37.8406C26.6504 37.8328 26.7734 37.827 26.8652 37.8173L26.8926 37.6596L26.9434 37.646C26.9336 37.7491 26.9219 37.8679 26.9102 38.006C26.8926 38.2162 26.8828 38.331 26.8809 38.3486L26.8262 38.3213V38.0761C26.8262 38.0352 26.7285 37.9963 26.5312 37.9632C26.3359 37.9321 26.1621 37.9165 26.0117 37.9165C26.0117 38.008 26.0078 38.1656 26.0019 38.3875C25.9961 38.6113 25.9922 38.7884 25.9922 38.9188C26.3379 38.9188 26.5879 38.8993 26.7383 38.8604L26.7715 38.7203L26.8223 38.7125L26.7383 39.3314L26.6894 39.3041L26.6953 39.0764C26.6543 39.0511 26.5664 39.0317 26.4355 39.0141C26.3047 38.9986 26.1582 38.9888 25.9922 38.9888C25.9922 39.0784 25.9961 39.2613 26.0019 39.5376C26.0078 39.8159 26.0117 40.0145 26.0117 40.1351C26.5019 40.1351 26.7949 40.0884 26.8848 39.9989L26.9434 39.7031L27.0195 39.6758L27.0176 39.6817Z" fill="white"/>
<path d="M13.2754 5.86368L22.4512 0.597412L22.3418 1.4109L13.2754 5.86368Z" fill="white"/>
</g>
<defs>
<linearGradient id="paint0_linear_223_6640" x1="18.1411" y1="25.4286" x2="13.7465" y2="15.6272" gradientUnits="userSpaceOnUse">
<stop stop-color="white"/>
<stop offset="1" stop-color="#DFD3AA"/>
</linearGradient>
<linearGradient id="paint1_linear_223_6640" x1="11.4556" y1="41.2081" x2="21.8263" y2="19.6819" gradientUnits="userSpaceOnUse">
<stop stop-color="white" stop-opacity="0"/>
<stop offset="0.09" stop-color="white" stop-opacity="0.06"/>
<stop offset="0.27" stop-color="white" stop-opacity="0.21"/>
<stop offset="0.52" stop-color="white" stop-opacity="0.45"/>
<stop offset="0.82" stop-color="white" stop-opacity="0.79"/>
<stop offset="1" stop-color="white"/>
</linearGradient>
<clipPath id="clip0_223_6640">
<rect width="36" height="49" fill="white"/>
</clipPath>
</defs>
</svg>
